<svg xmlns="http://www.w3.org/2000/svg" width="225.733" height="60.914" viewBox="0 0 225.733 60.914">
  <g id="Group_334" data-name="Group 334" transform="translate(-230 -44)">
    <g id="Group_1" data-name="Group 1" transform="translate(295.723 61.633)">
      <path id="Path_1" data-name="Path 1" d="M11.734,143.133a10.044,10.044,0,0,0-8.921,4.661V137H0v25.932H2.814V150.948a9,9,0,0,1,3.408-3.92,8.733,8.733,0,0,1,4.963-1.336c4.22,0,6.313,2.348,6.313,6.658v10.583h2.814V152.139c0-5.221-2.779-9.006-8.578-9.006" transform="translate(0 -137)" fill="#3ab8fb"/>
      <path id="Path_2" data-name="Path 2" d="M45.09,148.142c4.014,0,7.205,1.822,8.029,6.063H36.82C37.541,150.174,40.766,148.142,45.09,148.142Zm-8.406,8.445H55.9a2.453,2.453,0,0,0,.068-.631c0-6.588-4.255-10.267-10.911-10.267-7.068,0-11.22,3.995-11.22,10.3,0,6.273,4.152,10.268,11.391,10.268,4.426,0,7.549-1.121,10.087-3.47l-1.853-2c-2.162,2.068-4.392,3.014-8.1,3.014C40.389,163.807,36.958,161.423,36.683,156.587Z" transform="translate(-10.09 -139.591)" fill="#3ab8fb"/>
      <path id="Path_3" data-name="Path 3" d="M85.508,159.826c-1.613,2.944-5.147,4.03-8.3,4.03-2.745,0-7-.806-7-4.381s4.255-4.381,7-4.381c3.157,0,6.691,1.051,8.3,4.03ZM78.2,145.739a17.146,17.146,0,0,0-9.126,2.593l1.3,2.1a12.785,12.785,0,0,1,7.342-2.208c5.147,0,7.72,2.1,7.72,6.729v1.577c-1.475-2.1-4.426-3.82-8.475-3.82-4.083,0-9.539,1.717-9.539,6.763,0,5.082,5.456,6.763,9.539,6.763,4.049,0,7-1.752,8.475-3.82v.07a5.942,5.942,0,0,0,.789,3.049h2.985a7.005,7.005,0,0,1-.892-3.715v-6.868C88.322,148.893,84.479,145.739,78.2,145.739Z" transform="translate(-20.107 -139.606)" fill="#3ab8fb"/>
      <path id="Path_4" data-name="Path 4" d="M106.814,137H104v25.932h2.814Z" transform="translate(-31.013 -137)" fill="#3ab8fb"/>
      <path id="Path_5" data-name="Path 5" d="M125.63,160.791a7.568,7.568,0,0,1-3.945,1.3c-2.059,0-3.809-1.051-3.809-3.4V147.37h8.612v-2.523h-8.612V140.4h-2.814v4.451h-3.774v2.523h3.774v11.74c0,3.715,2.779,5.536,6.141,5.536a9.329,9.329,0,0,0,5.421-1.787Z" transform="translate(-33.186 -138.013)" fill="#3ab8fb"/>
      <path id="Path_6" data-name="Path 6" d="M147.813,143.133a10.044,10.044,0,0,0-8.921,4.661V137h-2.813v25.932h2.813V150.948a9,9,0,0,1,3.409-3.92,8.725,8.725,0,0,1,4.963-1.336c4.22,0,6.313,2.348,6.313,6.658v10.583h2.814V152.139c0-5.221-2.779-9.006-8.578-9.006" transform="translate(-40.579 -137)" fill="#3ab8fb"/>
      <path id="Path_7" data-name="Path 7" d="M185.885,157.224H171.234v2.523h14.651Z" transform="translate(-51.062 -143.031)" fill="#3ab8fb"/>
      <path id="Path_8" data-name="Path 8" d="M207.719,148.142c4.014,0,7.205,1.822,8.029,6.063h-16.3C200.17,150.174,203.4,148.142,207.719,148.142Zm-8.406,8.445h19.214a2.412,2.412,0,0,0,.069-.631c0-6.588-4.254-10.267-10.911-10.267-7.068,0-11.22,3.995-11.22,10.3,0,6.273,4.152,10.268,11.392,10.268,4.426,0,7.548-1.121,10.087-3.47l-1.853-2c-2.161,2.068-4.392,3.014-8.1,3.014C203.018,163.807,199.587,161.423,199.313,156.587Z" transform="translate(-58.586 -139.591)" fill="#3ab8fb"/>
    </g>
    <g id="Group_3" data-name="Group 3" transform="translate(230 44)">
      <g id="Group_2" data-name="Group 2" transform="translate(0)">
        <rect id="Rectangle_1" data-name="Rectangle 1" width="20.839" height="20.839" fill="#7c5bcf"/>
        <rect id="Rectangle_2" data-name="Rectangle 2" width="20.839" height="19.236" transform="translate(0 41.678)" fill="#80e8e7"/>
        <rect id="Rectangle_3" data-name="Rectangle 3" width="20.839" height="20.839" transform="translate(20.839 20.839)" fill="#3ab8fb"/>
      </g>
    </g>
  </g>
</svg>
